PathFileType	4	(X/Y/Z)	0_coords_data.trc
DataRate	CameraRate	NumFrames	NumMarkers	Units	OrigDataRate	OrigDataStartFrame	OrigNumFrames
30.0	30.0	7	21	m	30.0	20	59
Frame#	Time	THUMB_TIP	THUMB_IP	THUMB_MCP	THUMB_CMC	INDEX_TIP	INDEX_DIP	INDEX_PIP	INDEX_MCP	MIDDLE_TIP	MIDDLE_DIP	MIDDLE_PIP	MIDDLE_MCP	RING_TIP	RING_DIP	RING_PIP	RING_MCP	PINKY_TIP	PINKY_DIP	PINKY_PIP	PINKY_MCP	WRIST
X1	Y1	Z1	X2	Y2	Z2	X3	Y3	Z3	X4	Y4	Z4	X5	Y5	Z5	X6	Y6	Z6	X7	Y7	Z7	X8	Y8	Z8	X9	Y9	Z9	X10	Y10	Z10	X11	Y11	Z11	X12	Y12	Z12	X13	Y13	Z13	X14	Y14	Z14	X15	Y15	Z15	X16	Y16	Z16	X17	Y17	Z17	X18	Y18	Z18	X19	Y19	Z19	X20	Y20	Z20	X21	Y21	Z21
19	0.6333333333333333	0.02619809913635254	-0.027862100601196288	0.9341069946289062	0.020047000885009766	-0.017417999267578126	0.9593670043945313	0.029284700393676758	-0.0017114800214767451	0.985198974609375	0.011724699974060058	0.02326219940185547	0.9985419921875	0.03548569869995117	-0.11989499664306641	0.9699929809570312	0.03328530120849609	-0.09814550018310547	0.9789860229492188	0.029229799270629884	-0.07786039733886718	0.9882570190429687	0.018055500030517577	-0.042901500701904294	1.0080499877929687	0.020573400497436525	-0.022884199142456055	0.9779229736328126	0.022585599899291993	-0.039469898223876955	0.9639660034179688	0.01123840045928955	-0.06435669708251954	0.9692919921875	-0.0089239501953125	-0.04553219985961914	1.0084099731445313	0.00398346996307373	-0.01732699966430664	0.9624600219726562	0.004351109981536865	-0.033793701171875	0.9506589965820312	-0.007828410148620606	-0.05715399932861328	0.9569990234375	-0.024264600753784178	-0.036099300384521485	0.9903170166015625	-0.04710639953613281	-0.09461699676513671	0.9567639770507812	-0.04311920166015625	-0.0728290023803711	0.9597119750976563	-0.04011690139770508	-0.0542765998840332	0.964364990234375	-0.03519710159301758	-0.024022699356079102	0.9726619873046874	-0.01771969985961914	0.03159329986572266	1.02677001953125
20	0.6666666666666666	0.025898399353027343	-0.027792499542236327	0.9335659790039063	0.01997260093688965	-0.017240100860595704	0.959052001953125	0.02943680000305176	-0.0015484299659729	0.9847509765625	0.011570500373840333	0.02343880081176758	0.9982329711914063	0.035475799560546875	-0.11969999694824218	0.969385986328125	0.03327159881591797	-0.09789369964599609	0.9784920043945312	0.029212299346923827	-0.077668701171875	0.987781982421875	0.01834090042114258	-0.042713600158691405	1.007510009765625	0.020607500076293944	-0.02307819938659668	0.977364990234375	0.022547500610351563	-0.039191699981689455	0.9636279907226563	0.011204500198364258	-0.06426940155029297	0.9688800048828125	-0.008758999824523927	-0.045274600982666016	1.007780029296875	0.0038988499641418447	-0.017201099395751953	0.9624849853515625	0.004350170135498047	-0.03368140029907227	0.950239013671875	-0.00782795000076294	-0.05712580108642578	0.956697998046875	-0.02421820068359375	-0.035775501251220705	0.9894760131835938	-0.04685260009765625	-0.09444110107421876	0.9560360107421875	-0.042928298950195315	-0.07266120147705078	0.9591380004882812	-0.03996680068969727	-0.05408499908447266	0.963905029296875	-0.0350802001953125	-0.024179399490356444	0.9721110229492187	-0.017612199783325195	0.031680200576782225	1.0263499755859375
21	0.7	0.025594100952148438	-0.027748199462890626	0.9328150024414062	0.019751800537109374	-0.01723259925842285	0.9583829956054688	0.029134300231933592	-0.001475900053977966	0.98414501953125	0.01136270046234131	0.02354759979248047	0.9977080078125	0.03526509857177734	-0.1195070037841797	0.9685650024414062	0.03307080078125	-0.0977509002685547	0.9777520141601562	0.02902039909362793	-0.07754070281982423	0.9871160278320312	0.018230600357055662	-0.042799598693847654	1.006489990234375	0.020475900650024415	-0.02276569938659668	0.97664599609375	0.022341899871826172	-0.03928329849243164	0.962927001953125	0.010906900405883789	-0.06419979858398438	0.9684580078125	-0.009017939567565919	-0.04508309936523437	1.00725	0.003501960039138794	-0.017325700759887694	0.9614609985351562	0.0040800199508666994	-0.033426399230957034	0.949780029296875	-0.008043649673461915	-0.05703060150146484	0.9561119995117188	-0.024291999816894533	-0.035804100036621093	0.988875	-0.046919998168945314	-0.09440029907226563	0.9554559936523438	-0.04303799819946289	-0.07262580108642579	0.9585339965820312	-0.04003150177001953	-0.0540265998840332	0.963302978515625	-0.03531689834594726	-0.02382979965209961	0.9715460205078125	-0.01806209945678711	0.03181319999694824	1.0260699462890626
22	0.7333333333333333	0.025620899200439452	-0.027739599227905275	0.9322869873046875	0.019398799896240236	-0.017204500198364257	0.9578330078125	0.028756799697875975	-0.001572479963302612	0.983344970703125	0.011177599906921387	0.02341550064086914	0.9970440063476562	0.03503760147094727	-0.11948100280761718	0.967635009765625	0.03280130004882813	-0.09780729675292969	0.9770390014648438	0.0287677001953125	-0.07760289764404296	0.9863309936523438	0.018138999938964843	-0.04297790145874023	1.00602001953125	0.0201781005859375	-0.023094600677490234	0.9759990234375	0.022037900924682618	-0.039350898742675784	0.9622000122070312	0.01075529956817627	-0.06436940002441406	0.9676749877929688	-0.009245120048522949	-0.04531660079956055	1.0063300170898437	0.0034066300392150877	-0.01718630027770996	0.9609520263671875	0.003845860004425049	-0.03359650039672851	0.9490120239257812	-0.00831077003479004	-0.05710070037841797	0.9554140014648438	-0.024524599075317382	-0.03592630004882812	0.9882639770507813	-0.04723440170288086	-0.09439779663085937	0.9548309936523437	-0.043341400146484375	-0.07263999938964844	0.9579199829101562	-0.04034360122680664	-0.05409059906005859	0.9627429809570313	-0.03550239944458008	-0.02388279914855957	0.9707930297851562	-0.018203800201416015	0.03168379974365235	1.0255699462890624
23	0.7666666666666667	0.025535299301147462	-0.0279237003326416	0.93175	0.019343999862670897	-0.017486299514770508	0.9572529907226562	0.028720500946044922	-0.0017667800188064572	0.9829829711914062	0.011131400108337403	0.023199899673461914	0.9966829833984375	0.03484769821166992	-0.11968599700927735	0.9672139892578125	0.032653499603271484	-0.09800189971923828	0.9765130004882813	0.02860420036315918	-0.07777110290527343	0.9859609985351563	0.01789189910888672	-0.04314720153808594	1.0056799926757813	0.019707199096679687	-0.02328700065612793	0.9760050048828125	0.02195879936218262	-0.03959989929199219	0.9618369750976562	0.01060260009765625	-0.06445279693603516	0.9671179809570313	-0.009337269783020019	-0.04541120147705078	1.0058699951171874	0.003365639925003051	-0.017401100158691406	0.9605330200195312	0.0037607600688934323	-0.03379980087280274	0.94875	-0.00841868019104004	-0.05735530090332031	0.9551380004882812	-0.024651599884033204	-0.03614789962768555	0.9879869995117188	-0.047213699340820314	-0.094589599609375	0.9544169921875	-0.04334859848022461	-0.07283100128173828	0.9575419921875	-0.0403484001159668	-0.05426689910888672	0.9623839721679688	-0.03562490081787109	-0.024045799255371095	0.9704660034179687	-0.018332000732421874	0.03144980049133301	1.0251600341796876
24	0.8	0.025411100387573243	-0.02820560073852539	0.9315850219726562	0.01955820083618164	-0.017814599990844726	0.9571259765625	0.02884499931335449	-0.001980399966239929	0.9828740234375	0.011177499771118165	0.022996000289916992	0.9964869995117187	0.03499620056152344	-0.11988899993896485	0.9670339965820313	0.03281050109863281	-0.09821939849853516	0.9762130126953125	0.028753700256347655	-0.07803929901123047	0.9857030029296875	0.01789380073547363	-0.04326039886474609	1.0058300170898438	0.01986199951171875	-0.023325599670410157	0.975822021484375	0.02207710075378418	-0.039707500457763674	0.9617479858398438	0.010748200416564942	-0.06476450347900391	0.967072021484375	-0.009148679733276367	-0.04574549865722656	1.0055999755859375	0.003548069953918457	-0.0175664005279541	0.960416015625	0.0039030299186706544	-0.03410240173339844	0.9484349975585937	-0.008280659675598144	-0.05767100143432617	0.9549660034179688	-0.02448069953918457	-0.03646799850463867	0.9875659790039063	-0.04689889907836914	-0.09487319946289062	0.9541170043945313	-0.043094600677490234	-0.07315660095214843	0.9573070068359375	-0.04018379974365234	-0.05457400131225586	0.9621389770507812	-0.03557709884643555	-0.02440119934082031	0.97018701171875	-0.018263999938964843	0.031300500869750975	1.0251099853515624
25	0.8333333333333334	0.02561549949645996	-0.028450700759887697	0.9315330200195312	0.019793399810791014	-0.017961700439453124	0.957072021484375	0.029073299407958983	-0.002230550050735473	0.98277099609375	0.01134630012512207	0.022799699783325196	0.9963590087890625	0.03529349899291992	-0.11999400329589843	0.9668900146484375	0.033015899658203125	-0.09829889678955078	0.9762329711914063	0.028996799468994142	-0.0781520004272461	0.9855889892578125	0.017954999923706055	-0.04359109878540039	1.0053200073242188	0.02039179992675781	-0.02362540054321289	0.9750859985351562	0.02225469970703125	-0.039952999114990236	0.96156201171875	0.01094279956817627	-0.06500869750976562	0.9671430053710938	-0.009161760330200195	-0.04597669982910156	1.00572998046875	0.003635529994964599	-0.01794759941101074	0.9601810302734375	0.004048709869384766	-0.03430960083007813	0.948385986328125	-0.008000080108642577	-0.057906700134277345	0.9548670043945312	-0.024370399475097657	-0.036604000091552735	0.9877169799804687	-0.04666189956665039	-0.0951488037109375	0.9540009765625	-0.042903499603271486	-0.07341580200195312	0.9572020263671875	-0.040002700805664065	-0.05478580093383789	0.9620280151367188	-0.035273300170898435	-0.024598899841308593	0.970155029296875	-0.01804170036315918	0.03098710060119629	1.02475
